# xmcd CD database file
#
# Track frame offsets:
#	150
#	40597
#	82075
#	108947
#	145113
#	185240
#	209556
#	246089
#	280322
#	311102
#
# Disc length: 4659 seconds
#
# Revision: 0
# Processed by: cddbd v1.5.2PL0 Copyright (c) Steve Scherf et al.
# Submitted via: CDex 1.51
#
DISCID=9512310a
DTITLE=Roy Williams and Frank Brooker - 'S Wonderful
DYEAR=2002
DGENRE=Jazz
TTITLE0=Broadway
TTITLE1=Out of Nowhere
TTITLE2=You Do Something to Me
TTITLE3=A Lull at Dawn
TTITLE4=There is No Greater Love
TTITLE5=Black Butterfly
TTITLE6=Isn't it a Pity
TTITLE7=I Remember April
TTITLE8=Everything I Love
TTITLE9='S Wonderful
EXTD=YEAR: 2002
EXTT0=
EXTT1=
EXTT2=
EXTT3=
EXTT4=
EXTT5=
EXTT6=
EXTT7=
EXTT8=
EXTT9=
PLAYORDER=
